<svg width="264" height="27" viewBox="0 0 264 27" fill="none" xmlns="http://www.w3.org/2000/svg">
<g clip-path="url(#clip0_1:53)">
<path d="M12.8506 21.7328L14.3209 24.9196L13.9533 25.0672C12.4846 26.1567 10.7071 26.7461 8.88065 26.7492C6.52335 26.7492 4.2626 25.8095 2.59573 24.1369C0.928866 22.4643 -0.00756836 20.1957 -0.00756836 17.8303C-0.00756836 15.4649 0.928866 13.1963 2.59573 11.5237C4.2626 9.85111 6.52335 8.91144 8.88065 8.91144C10.6926 8.90429 12.4614 9.46666 13.9386 10.5196L14.3062 10.6967L12.8359 13.7803L12.336 13.4262C11.3689 12.6136 10.1418 12.1787 8.88065 12.2016C7.39881 12.2016 5.97766 12.7923 4.92983 13.8437C3.88201 14.8952 3.29335 16.3212 3.29335 17.8082C3.29335 19.2951 3.88201 20.7212 4.92983 21.7726C5.97766 22.824 7.39881 23.4147 8.88065 23.4147C10.1673 23.3974 11.4106 22.9451 12.4095 22.1311L12.8506 21.7328Z" fill="#8A5137"/>
<path d="M43.875 17.8967C43.8431 19.6094 43.3075 21.2745 42.3354 22.6827C41.3633 24.0909 39.9982 25.1794 38.4114 25.8114C36.8247 26.4434 35.0873 26.5908 33.4174 26.235C31.7474 25.8792 30.2196 25.0361 29.0257 23.8116C27.8319 22.5871 27.0253 21.0358 26.7074 19.3528C26.3895 17.6697 26.5743 15.9299 27.2388 14.352C27.9033 12.774 29.0176 11.4283 30.442 10.484C31.8663 9.53961 33.537 9.03872 35.2441 9.04423C37.5567 9.07535 39.7629 10.0241 41.3803 11.683C42.9977 13.3419 43.8946 15.576 43.875 17.8967ZM40.7432 17.8967C40.7171 16.8078 40.3714 15.7509 39.7492 14.8584C39.1271 13.9658 38.2563 13.2774 37.2459 12.8794C36.2355 12.4813 35.1306 12.3914 34.0695 12.6209C33.0084 12.8503 32.0384 13.3889 31.2811 14.1692C30.5237 14.9494 30.0127 15.9366 29.8122 17.0071C29.6116 18.0775 29.7303 19.1835 30.1535 20.1865C30.5767 21.1895 31.2855 22.0449 32.191 22.6454C33.0966 23.2459 34.1587 23.5649 35.2441 23.5623C35.9759 23.5526 36.6987 23.3985 37.3711 23.1085C38.0436 22.8186 38.6525 22.3986 39.1631 21.8724C39.6738 21.3463 40.0761 20.7244 40.3473 20.0423C40.6184 19.3601 40.7529 18.631 40.7432 17.8967Z" fill="#8A5137"/>
<path d="M118.26 18C118.277 18.5303 118.228 19.0607 118.113 19.5787H104.203C104.5 20.7609 105.179 21.8109 106.134 22.5639C107.089 23.317 108.267 23.7304 109.482 23.7393C110.535 23.7512 111.566 23.4256 112.422 22.8098H116.833C116.075 24.0873 114.998 25.1451 113.709 25.8796C112.421 26.6141 110.964 27.0002 109.482 27C107.698 27.0322 105.945 26.5307 104.446 25.5592C102.947 24.5878 101.77 23.1906 101.066 21.5456C100.361 19.9006 100.161 18.0823 100.491 16.3227C100.82 14.563 101.664 12.9416 102.915 11.6652C104.166 10.3887 105.768 9.51507 107.516 9.15555C109.264 8.79602 111.079 8.96692 112.73 9.64647C114.38 10.326 115.792 11.4834 116.785 12.9712C117.778 14.4589 118.306 16.2095 118.304 18H118.26ZM104.203 16.3918H114.834C114.511 15.2113 113.815 14.1682 112.849 13.4202C111.883 12.6722 110.701 12.26 109.482 12.2459C108.271 12.2614 107.098 12.6755 106.145 13.4245C105.191 14.1735 104.509 15.216 104.203 16.3918Z" fill="#8A5137"/>
<path d="M147.608 18C147.625 18.5303 147.576 19.0607 147.461 19.5787H133.551C133.847 20.7609 134.527 21.8109 135.482 22.5639C136.437 23.317 137.615 23.7304 138.83 23.7393C139.883 23.7512 140.914 23.4256 141.77 22.8098H146.181C145.417 24.0991 144.329 25.1646 143.026 25.8999C141.723 26.6352 140.251 27.0145 138.756 27C136.972 27.0322 135.219 26.5307 133.72 25.5592C132.221 24.5878 131.045 23.1906 130.34 21.5456C129.636 19.9006 129.436 18.0823 129.765 16.3227C130.094 14.563 130.938 12.9416 132.19 11.6652C133.441 10.3887 135.043 9.51507 136.79 9.15555C138.538 8.79602 140.353 8.96692 142.004 9.64647C143.655 10.326 145.067 11.4834 146.059 12.9712C147.052 14.4589 147.581 16.2095 147.578 18H147.608ZM133.551 16.3918H144.152C143.83 15.2113 143.133 14.1682 142.168 13.4202C141.202 12.6722 140.02 12.26 138.8 12.2459C137.594 12.2678 136.429 12.6848 135.481 13.4333C134.533 14.1818 133.856 15.2208 133.551 16.3918Z" fill="#8A5137"/>
<path d="M200.025 8.92627V26.8673H196.776V24.8607C195.269 26.1657 193.341 26.8786 191.35 26.8673C189.011 26.8673 186.767 25.9346 185.112 24.2744C183.458 22.6143 182.528 20.3626 182.528 18.0148C182.528 15.667 183.458 13.4153 185.112 11.7552C186.767 10.095 189.011 9.16233 191.35 9.16233C193.341 9.15103 195.269 9.86387 196.776 11.1689V8.92627H200.025ZM196.776 18.7377V17.2623C196.589 15.8478 195.874 14.5574 194.774 13.6528C193.674 12.7482 192.273 12.2971 190.854 12.3909C189.435 12.4847 188.105 13.1165 187.133 14.1581C186.161 15.1997 185.62 16.5732 185.62 18C185.62 19.4269 186.161 20.8004 187.133 21.842C188.105 22.8836 189.435 23.5154 190.854 23.6092C192.273 23.703 193.674 23.2519 194.774 22.3473C195.874 21.4427 196.589 20.1523 196.776 18.7377Z" fill="#8A5137"/>
<path d="M224.565 21.8065L226.036 24.9934L225.683 25.1409C224.213 26.2276 222.436 26.8167 220.61 26.8229C218.253 26.8229 215.992 25.8832 214.325 24.2106C212.658 22.538 211.722 20.2695 211.722 17.904C211.722 15.5386 212.658 13.2701 214.325 11.5974C215.992 9.92484 218.253 8.98518 220.61 8.98518C222.427 8.9779 224.2 9.54015 225.683 10.5934L226.036 10.7704L224.565 13.854L224.066 13.4999C223.107 12.6917 221.891 12.2569 220.64 12.2753C219.158 12.2753 217.737 12.866 216.689 13.9175C215.641 14.9689 215.052 16.3949 215.052 17.8819C215.052 19.3688 215.641 20.7949 216.689 21.8463C217.737 22.8978 219.158 23.4885 220.64 23.4885C221.926 23.4711 223.17 23.0189 224.168 22.2048L224.565 21.8065Z" fill="#8A5137"/>
<path d="M255.31 17.9116C255.328 18.4419 255.278 18.9723 255.163 19.4903H241.195C241.491 20.6725 242.171 21.7225 243.126 22.4756C244.081 23.2286 245.259 23.642 246.474 23.6509C247.527 23.6628 248.557 23.3372 249.414 22.7214H253.825C253.059 24.0087 251.971 25.0726 250.668 25.8076C249.366 26.5426 247.894 26.9232 246.4 26.9116C244.616 26.9438 242.863 26.4423 241.364 25.4709C239.865 24.4994 238.689 23.1022 237.984 21.4572C237.28 19.8122 237.08 17.994 237.409 16.2343C237.738 14.4746 238.582 12.8532 239.834 11.5768C241.085 10.3004 242.686 9.42669 244.434 9.06717C246.182 8.70764 247.997 8.87854 249.648 9.55809C251.299 10.2376 252.711 11.395 253.703 12.8828C254.696 14.3705 255.225 16.1212 255.222 17.9116H255.31ZM241.195 16.3034H251.826C251.503 15.1229 250.807 14.0798 249.841 13.3318C248.875 12.5839 247.693 12.1716 246.474 12.1575C245.263 12.173 244.09 12.5871 243.137 13.3361C242.183 14.0851 241.501 15.1276 241.195 16.3034Z" fill="#8A5137"/>
<path d="M60.4899 12.0984V26.8525H57.4022V12.0984V8.8377C57.4017 7.65377 57.6379 6.48177 58.0968 5.39106C58.5557 4.30035 59.228 3.31309 60.0739 2.4877C60.9197 1.6623 61.922 1.01555 63.0213 0.585719C64.1207 0.155885 65.2948 -0.0483011 66.4742 -0.0147563V3.36393C65.7235 3.32415 64.9725 3.4368 64.2662 3.69514C63.5598 3.95347 62.9127 4.35218 62.3636 4.86739C61.8145 5.3826 61.3746 6.00371 61.0703 6.69352C60.7661 7.38334 60.6037 8.12768 60.5928 8.88197L60.4899 12.0984Z" fill="#8A5137"/>
<path d="M66.9005 13.4116H54.6085V16.4067H66.9005V13.4116Z" fill="#8A5137"/>
<path d="M83.1625 12.0982V26.8523H80.016V12.0982V8.83754C80.0156 7.65489 80.2513 6.48414 80.7093 5.39442C81.1673 4.30471 81.8382 3.31813 82.6825 2.49294C83.5268 1.66776 84.5273 1.02069 85.625 0.589952C86.7226 0.159216 87.8951 -0.0464556 89.0733 -0.0149181V3.36377C88.3226 3.32399 87.5716 3.43664 86.8653 3.69497C86.1589 3.95331 85.5118 4.35202 84.9627 4.86723C84.4136 5.38244 83.9737 6.00354 83.6694 6.69336C83.3652 7.38318 83.2028 8.12752 83.1919 8.8818L83.1625 12.0982Z" fill="#8A5137"/>
<path d="M89.5586 13.4116H77.2665V16.4067H89.5586V13.4116Z" fill="#8A5137"/>
<path d="M164.943 12.1426V26.8967H161.797V12.1426V8.88198C161.796 7.69932 162.032 6.52857 162.49 5.43886C162.948 4.34915 163.619 3.36257 164.463 2.53738C165.307 1.71219 166.308 1.06512 167.405 0.634386C168.503 0.203649 169.676 -0.00202204 170.854 0.0295155V3.39345C170.103 3.35367 169.352 3.46632 168.646 3.72466C167.939 3.98299 167.292 4.3817 166.743 4.89691C166.194 5.41212 165.754 6.03323 165.45 6.72304C165.146 7.41286 164.983 8.1572 164.972 8.91148L164.943 12.1426Z" fill="#8A5137"/>
<path d="M171.354 13.4558H159.062V16.4509H171.354V13.4558Z" fill="#8A5137"/>
<path d="M258.971 2.62622V3.20163H257.501V6.97868H256.884V3.20163H255.413V2.62622H258.971Z" fill="#8A5137"/>
<path d="M263.985 2.64111V6.96407H263.397V4.01324L262.059 6.96407L260.765 4.01324V6.96407H260.177V2.64111H260.883L262.059 5.44439L263.294 2.64111H263.985Z" fill="#8A5137"/>
</g>
<defs>
<clipPath id="clip0_1:53">
<rect width="264" height="27" fill="white"/>
</clipPath>
</defs>
</svg>
